<svg xmlns="http://www.w3.org/2000/svg" height="40" viewBox="0 -960 960 960" width="40"><path d="M216.334-125v-209q0-19 9-36.667 9-17.666 25.666-28L309.667-438q6.667 66 17.5 120.667Q338-262.667 362.334-184l-146 59Zm172.333-84.667q-19.334-73-31.667-142.833-12.333-69.833-12.333-127.5 0-94.667 30.833-174.833Q406.333-735 480-810.333q73.667 75.333 104.5 155.5Q615.333-574.667 615.333-480q0 56-12.833 126.5T571-209.667H388.667ZM480-473q20.333 0 32.833-12.5t12.5-32.833q0-19.667-12.5-32.5-12.5-12.834-32.833-12.834t-32.833 12.834q-12.5 12.833-12.5 32.5 0 20.333 12.5 32.833T480-473Zm262.333 348-146-58q24.333-78.667 35.167-133.833Q642.333-372 649-438l58.666 40.333q16 10.334 25.334 28Q742.333-352 742.333-333v208Z" fill="#ffffff"/></svg>